<?xml version="1.0" encoding="UTF-8"?>
<svg width="100pt" height="100pt" version="1.1" viewBox="0 0 100 100" xmlns="http://www.w3.org/2000/svg">
 <g>
  <path d="m14 70.406h14.781l23.344 16.625c0.53125 0.40625 1.1875 0.59375 1.8125 0.59375 0.5 0 1-0.125 1.4375-0.34375 1.0312-0.53125 1.6875-1.625 1.6875-2.7812v-69c0-1.1562-0.65625-2.25-1.6875-2.7812s-2.2812-0.4375-3.25 0.25l-23.344 16.625h-14.781c-4.2812 0-7.75 3.5-7.75 7.75v25.312c0 4.25 3.4688 7.75 7.75 7.75z"/>
  <path d="m66.664 62.211c0.60938 0.60937 1.4102 0.91406 2.2109 0.91406s1.5977-0.30469 2.2109-0.91406c3.25-3.25 5.043-7.5859 5.043-12.215 0-4.625-1.793-8.9648-5.043-12.215-1.2188-1.2188-3.1992-1.2188-4.418 0-1.2188 1.2227-1.2188 3.1992 0 4.4219 2.0703 2.0664 3.2109 4.8359 3.2109 7.793 0 2.957-1.1406 5.7227-3.2109 7.793-1.2188 1.2188-1.2188 3.1992 0 4.4219z"/>
  <path d="m79.121 25.332c-1.2188 1.2188-1.2188 3.1992 0 4.418 5.4062 5.4062 8.3789 12.598 8.3789 20.25 0 7.6172-2.9766 14.812-8.3867 20.258-1.2188 1.2227-1.2109 3.2031 0.011719 4.418 0.60938 0.60547 1.4062 0.90625 2.2031 0.90625 0.80078 0 1.6055-0.30859 2.2148-0.92188 6.582-6.625 10.203-15.383 10.203-24.66 0-9.3203-3.625-18.082-10.211-24.668-1.2188-1.2188-3.1992-1.2188-4.418 0z"/>
 </g>
</svg>
